<svg xmlns="http://www.w3.org/2000/svg" viewBox="0 0 74.85 183.02">
  <defs>
    <style>
      .cls-1 {
        fill: #fbcd15;
      }
    </style>
  </defs>
  <path id="Path_3031" data-name="Path 3031" class="cls-1" d="M74.427,210.039a62.461,62.461,0,0,1-10.881-3.52.552.552,0,0,1-.191-.259,10.533,10.533,0,0,1-.383-3.919,23.123,23.123,0,0,0-12.335-21.828c-.168-.085-.342-.159-.544-.241l-.187-.077a.541.541,0,0,0-.537.071.534.534,0,0,0-.2.509l.216,1.336c.191,1.182.379,2.339.558,3.5l.045.3a68.107,68.107,0,0,0,2.048,9.962,15.393,15.393,0,0,0,4.312,7.06,62.371,62.371,0,0,1-11.582-8.81.772.772,0,0,1-.175-.416l-.095-2.332a1.293,1.293,0,0,1,.045-.412A24.881,24.881,0,0,0,45.9,177.03a28.172,28.172,0,0,0-6.519-14.039c-.414-.489-.779-.737-1.085-.737a.426.426,0,0,0-.2.043.536.536,0,0,0-.294.418l-.095.813c-.073.6-.143,1.2-.206,1.79-.109,1.046-.228,2.091-.348,3.136l-.017.151c-.3,2.609-.608,5.308-.772,8.009-.19,3.152-.134,6.833,1.729,10.237.01.017.019.035.029.053a80.977,80.977,0,0,1-7.062-10.415,1.615,1.615,0,0,1-.168-1.035,9.459,9.459,0,0,1,1.837-4.493A22.205,22.205,0,0,0,36.02,161.4a30.889,30.889,0,0,0-2.506-17.173c-.069-.155-.149-.305-.234-.466l-.2-.368a.547.547,0,0,0-.5-.289.538.538,0,0,0-.472.338c-.606,1.528-1.192,3-1.774,4.462l-.372.934a67.035,67.035,0,0,0-3.444,10.518A18.443,18.443,0,0,0,26.413,167a95.519,95.519,0,0,1-4.761-14.57,1.064,1.064,0,0,1,.1-.539,8.975,8.975,0,0,1,2.932-3.995,19.942,19.942,0,0,0,5.748-8.013,30.449,30.449,0,0,0,2.073-18.063,1.421,1.421,0,0,0-.058-.212l-.02-.06a.542.542,0,0,0-.3-.33.561.561,0,0,0-.43.006.739.739,0,0,0-.387.262c-.626.836-1.261,1.68-1.9,2.523l-.107.142c-1.6,2.129-3.262,4.33-4.855,6.522a27.235,27.235,0,0,0-3.987,7.528,17.259,17.259,0,0,0-.792,3.544,111.354,111.354,0,0,1-.9-12.534,3.817,3.817,0,0,1,.8-2.691,5,5,0,0,1,2.352-1.8c3.862-1.411,6.34-4.393,8.067-6.833a28.868,28.868,0,0,0,5-14.042c.061-.566.1-1.139.132-1.745l.009-.138c.017-.295.035-.6.059-.927a.538.538,0,0,0-.294-.516.547.547,0,0,0-.589.071l-.458.393c-.173.147-.32.273-.473.4-.736.591-1.475,1.176-2.215,1.763l-.077.061c-1.625,1.287-3.306,2.618-4.911,3.993a20.993,20.993,0,0,0-6.312,8.322q-.3.747-.518,1.479a108.587,108.587,0,0,1,2.378-14.118c.133-.561.207-.726.479-.816a1.033,1.033,0,0,0,.448-.308,3.583,3.583,0,0,1,2.846-1.064c3.373-.079,6.048-1.762,8.219-3.4,5.324-4.01,8.99-14.184,8.99-14.529a.538.538,0,0,0-.242-.448.545.545,0,0,0-.5-.045c-1.109.471-2.218.929-3.367,1.4-2.527,1.048-5.139,2.13-7.649,3.314A15.229,15.229,0,0,0,25,91.747a108.472,108.472,0,0,1,4.7-11.291c.2-.393,1.156-.809,2.523-.809a5.425,5.425,0,0,1,1.247.137,14.06,14.06,0,0,0,9.92-1.458,22.427,22.427,0,0,0,9.145-9.012,4.423,4.423,0,0,0,.2-.475.534.534,0,0,0-.069-.507.548.548,0,0,0-.462-.219h0l-1.273.08c-.78.049-1.538.1-2.3.136l-.809.041a40.288,40.288,0,0,0-7.357.829,13.233,13.233,0,0,0-6.4,3.225A97.428,97.428,0,0,1,40,63.635a1.205,1.205,0,0,1,.549-.222A4.809,4.809,0,0,1,41.6,63.3a3.8,3.8,0,0,1,1.858.434,14.2,14.2,0,0,0,11.19.357A18.3,18.3,0,0,0,63.32,57.6a2.636,2.636,0,0,0,.22-.337.456.456,0,0,0,.014-.427c-.192-.4-1.025-.593-1.376-.656-.86-.15-1.835-.322-2.8-.453q-.664-.093-1.331-.192l-.057-.009c-1.506-.222-3.063-.452-4.632-.531a12.751,12.751,0,0,0-7.494,1.733q2.1-2.236,4.285-4.234c.459-.419.979-.842,1.688-1.372a.752.752,0,0,1,.365-.1c5.02-.2,9.2-2.412,12.769-6.774a25.694,25.694,0,0,0,4.562-9.155l.039-.13c.12-.4.186-.617-.09-.874-.213-.2-.588-.139-1.562.247-.885.34-1.775.67-2.689,1.009-1.836.681-3.736,1.385-5.569,2.18a16.39,16.39,0,0,0-7.269,6A8.951,8.951,0,0,0,50.771,49.7a.421.421,0,0,1-.026.087,85.683,85.683,0,0,0-9.393,9.568A28.164,28.164,0,0,0,45.493,48.2a35.879,35.879,0,0,0,.134-11.715c-.038-.224-.09-.448-.155-.728l-.1-.432a.536.536,0,0,0-.891-.269c-.219.206-.433.4-.643.59l-.148.133a18.767,18.767,0,0,0-1.5,1.455A31,31,0,0,0,34.25,53.458a13.561,13.561,0,0,0,.514,6.93,9.459,9.459,0,0,0,1.023,1.841c.177.268.354.537.516.814a1.846,1.846,0,0,1,.129.241c-.074.788-.179,1.666-.322,2.72a1,1,0,0,1-.09.128l-.051.071a102.711,102.711,0,0,0-6.7,10.649,35.813,35.813,0,0,0,1.383-10.309A27.324,27.324,0,0,0,27.221,53.27a.561.561,0,0,0-.477-.276.535.535,0,0,0-.426.22c-.067.094-.136.182-.2.267-.145.188-.281.366-.4.556a29.548,29.548,0,0,0-3.394,8.3,43.421,43.421,0,0,0-1.688,11.51,13.526,13.526,0,0,0,1.694,7.142,12.1,12.1,0,0,0,1.257,1.647c.239.279.485.566.708.86a1.075,1.075,0,0,1,.236.529c.029.7.014,1.412,0,2.1l-.011.476a.765.765,0,0,1-.049.248,105.2,105.2,0,0,0-3.785,10.837,35.034,35.034,0,0,0,.271-3.693,26.893,26.893,0,0,0-6.2-18.045l-.885-1.078a.531.531,0,0,0-.415-.2l-.088.008a.536.536,0,0,0-.414.341c-.081.215-.16.418-.237.614-.148.379-.288.739-.406,1.1a34.886,34.886,0,0,0-1.448,10.1l0,.081a34.217,34.217,0,0,0,1.074,11.07,13.574,13.574,0,0,0,3.776,6.194l.044.04a6.658,6.658,0,0,1,2.022,2.534c.061.242.124.485.2.725a6.368,6.368,0,0,1-.1,3.184,13.7,13.7,0,0,0-.26,1.715c-.156,2.352-.347,4.744-.532,7.057l-.017.214q-.071.885-.142,1.77a28.883,28.883,0,0,0-5.241-14.358,28.151,28.151,0,0,0-6.546-6.621c-.108-.077-.221-.147-.373-.237-.074-.043-.159-.093-.262-.158a.551.551,0,0,0-.517-.023.537.537,0,0,0-.3.428c-.034.335-.073.659-.114.995a17.289,17.289,0,0,0-.166,2.007,42.276,42.276,0,0,0,4.355,19.282,13.759,13.759,0,0,0,3.2,4.212,8.242,8.242,0,0,0,4.286,2.057.528.528,0,0,1,.13.066c.086.172.175.344.264.518a9.283,9.283,0,0,1,.806,1.877,7.2,7.2,0,0,1,.135,1.742c0,.227,0,.456.007.681a64.151,64.151,0,0,0,1.21,12.023,23.341,23.341,0,0,0-2.03-4.228A27.2,27.2,0,0,0,2.424,130.143a11.68,11.68,0,0,0-1.117-.364l-.082-.024c-.166-.049-.343-.1-.531-.158a.537.537,0,0,0-.7.57c.041.38.069.75.1,1.111a12.559,12.559,0,0,0,.3,2.279,36.417,36.417,0,0,0,9.053,16.828,10.476,10.476,0,0,0,5.926,3.307,10.871,10.871,0,0,0,2.326.025l.323-.019c.049,0,.092-.006.132-.006.088,0,.1,0,.157.091l1.5,2.063a1.025,1.025,0,0,1,.067.192l.022.074a105.652,105.652,0,0,0,5.775,15.209,29.811,29.811,0,0,0-3.406-3.928c-5.767-5.6-15.627-5.758-16.732-5.758H5.4l-.087.016a.533.533,0,0,0-.334.659c.077.257.149.517.231.822a16.152,16.152,0,0,0,.551,1.738,26.788,26.788,0,0,0,5.575,8.268,22.283,22.283,0,0,0,6.694,5.3A12.019,12.019,0,0,0,26.41,179.5a4.888,4.888,0,0,0,1.434-.565c.322-.206.41-.2.726.036a12.542,12.542,0,0,0,1.161.739c.214.126.43.252.631.379a1.188,1.188,0,0,1,.126.181,84.26,84.26,0,0,0,7.931,10.915,16.97,16.97,0,0,0-4.833-2.488,23.464,23.464,0,0,0-15.947.621,17.392,17.392,0,0,0-1.737.813.543.543,0,0,0-.234.361.537.537,0,0,0,.1.413c.168.218.33.437.49.654l.035.048a17.182,17.182,0,0,0,1.232,1.545,25.429,25.429,0,0,0,7.08,4.989,23.87,23.87,0,0,0,10.252,2.8c.161.006.323.009.484.009a9.512,9.512,0,0,0,7.518-3.167.382.382,0,0,1,.151-.049c.725.052,1.415.158,1.93.243a.543.543,0,0,1,.244.119,67.1,67.1,0,0,0,10.041,7.371c-.532-.158-1.08-.295-1.641-.4a20.61,20.61,0,0,0-11.781,1.4,27.47,27.47,0,0,0-8.062,5.076.536.536,0,0,0-.067.733,8.2,8.2,0,0,0,3.154,2.3,27.99,27.99,0,0,0,8.8,2.321c.01,0,1.094.095,2.615.095a29.134,29.134,0,0,0,3.034-.146,20.125,20.125,0,0,0,2.594-.445c3.888-.947,6.523-2.893,8.032-5.915a.8.8,0,0,1,.29-.129,17.723,17.723,0,0,1,1.934-.377,1.064,1.064,0,0,1,.54.105,61.771,61.771,0,0,0,8.44,2.561.534.534,0,0,0,.6-.269,8.62,8.62,0,0,1,1.007-1.476.534.534,0,0,0-.292-.867Z" transform="translate(0.004 -33.977)"/>
</svg>
